<svg width="39" height="39" viewBox="0 0 39 39" fill="none" xmlns="http://www.w3.org/2000/svg">
<g clip-path="url(#clip0_703_1482)">
<path fill-rule="evenodd" clip-rule="evenodd" d="M18.1768 0.017581C18.0525 0.0316258 17.6457 0.075443 17.2728 0.114859C14.6865 0.38844 11.9007 1.32303 9.60503 2.68738C4.78133 5.55419 1.43992 10.2574 0.361611 15.6982C0.0625069 17.2072 0 17.8745 0 19.5591C0 21.2436 0.0625069 21.911 0.361611 23.42C1.71345 30.2407 6.64401 35.8594 13.2408 38.0966C14.168 38.4111 15.7269 38.8116 16.0297 38.8132L16.175 38.814V31.2415V23.6689H13.8181H11.4612V20.9182V18.1675H13.8181H16.175L16.1752 16.0155C16.1755 13.4978 16.2396 12.6432 16.5036 11.64C17.1803 9.06836 19.0012 7.41774 21.6961 6.93343C22.223 6.83874 22.6388 6.8201 23.9561 6.8322C24.844 6.84035 25.9918 6.8821 26.5068 6.92501L27.4431 7.00294L27.46 9.47857L27.4769 11.9542H25.7367C23.9014 11.9542 23.415 12.0097 22.8878 12.2792C22.5622 12.4458 22.2122 12.8696 22.038 13.3083C21.9015 13.6521 21.8935 13.7765 21.871 15.9184L21.8473 18.1675H24.5645C26.9701 18.1675 27.2817 18.179 27.2817 18.2674C27.2817 18.3581 27.1213 19.6354 26.7418 22.5687L26.6036 23.6366L24.2306 23.6535L21.8575 23.6706V31.3352V39L22.0996 38.9667C28.0482 38.1493 33.258 34.6762 36.3334 29.4775C37.6865 27.1902 38.5552 24.6033 38.9143 21.792C39.0286 20.8974 39.0286 18.2207 38.9143 17.3262C38.3244 12.7076 36.3522 8.69938 33.117 5.54351C30.059 2.56059 26.3209 0.742731 22.0039 0.139065C21.3476 0.0473535 18.6663 -0.0378213 18.1768 0.017581Z" fill="#F5EC09"/>
</g>
<defs>
<clipPath id="clip0_703_1482">
<rect width="39" height="39" fill="white"/>
</clipPath>
</defs>
</svg>
