<svg width="50" height="50" viewBox="0 0 50 50" fill="none" xmlns="http://www.w3.org/2000/svg">
<path d="M45.125 21.75L43.0833 30.4583C41.3333 37.9792 37.875 41.0208 31.375 40.3958C30.3333 40.3125 29.2083 40.125 28 39.8333L24.5 39C15.8125 36.9375 13.125 32.6458 15.1667 23.9375L17.2083 15.2083C17.625 13.4375 18.125 11.8958 18.75 10.625C21.1875 5.58333 25.3333 4.22916 32.2917 5.875L35.7708 6.6875C44.5 8.72916 47.1667 13.0417 45.125 21.75Z" stroke="#292D32" stroke-width="3" stroke-linecap="round" stroke-linejoin="round"/>
<path d="M31.375 40.3958C30.0833 41.2708 28.4583 42 26.4792 42.6458L23.1875 43.7292C14.9167 46.3958 10.5625 44.1667 7.87501 35.8958L5.20834 27.6667C2.54168 19.3958 4.75001 15.0208 13.0208 12.3542L16.3125 11.2708C17.1667 11 17.9792 10.7708 18.75 10.625C18.125 11.8958 17.625 13.4375 17.2083 15.2083L15.1667 23.9375C13.125 32.6458 15.8125 36.9375 24.5 39L28 39.8333C29.2083 40.125 30.3333 40.3125 31.375 40.3958Z" stroke="#292D32" stroke-width="3" stroke-linecap="round" stroke-linejoin="round"/>
<path d="M26.3333 17.7708L36.4375 20.3333" stroke="#292D32" stroke-width="3" stroke-linecap="round" stroke-linejoin="round"/>
<path d="M24.2917 25.8333L30.3333 27.375" stroke="#292D32" stroke-width="3" stroke-linecap="round" stroke-linejoin="round"/>
</svg>
