<svg width="60" height="60" viewBox="0 0 60 60" fill="none" xmlns="http://www.w3.org/2000/svg">
<path d="M49.65 20.225C49.65 21.275 49.575 22.3 49.45 23.275C48.3 22.775 47.05 22.5 45.725 22.5C42.675 22.5 39.975 23.975 38.3 26.225C36.6 23.975 33.9 22.5 30.85 22.5C25.725 22.5 21.575 26.675 21.575 31.85C21.575 38.55 25.125 43.675 29.075 47.15C28.95 47.225 28.825 47.25 28.7 47.3C27.95 47.575 26.7 47.575 25.95 47.3C19.475 45.075 5 35.875 5 20.225C5 13.325 10.55 7.75 17.4 7.75C21.475 7.75 25.075 9.69998 27.325 12.725C29.6 9.69998 33.2 7.75 37.25 7.75C44.1 7.75 49.65 13.325 49.65 20.225Z" stroke="#292D32" stroke-width="3" stroke-linecap="round" stroke-linejoin="round"/>
<path d="M55 31.85C55 43.55 44.175 50.45 39.325 52.1C38.75 52.3 37.825 52.3 37.25 52.1C35.175 51.4 32 49.725 29.075 47.15C25.125 43.675 21.575 38.55 21.575 31.85C21.575 26.675 25.725 22.5 30.85 22.5C33.9 22.5 36.6 23.975 38.3 26.225C39.975 23.975 42.675 22.5 45.725 22.5C47.05 22.5 48.3 22.775 49.45 23.275C52.725 24.725 55 28 55 31.85Z" stroke="#292D32" stroke-width="3" stroke-linecap="round" stroke-linejoin="round"/>
</svg>
