<svg width="58" height="62" viewBox="0 0 58 62" fill="none" xmlns="http://www.w3.org/2000/svg">
<path fill-rule="evenodd" clip-rule="evenodd" d="M34.2727 52.8616C33.9939 52.0794 33.8242 51.2519 33.6181 50.4583C33.3392 49.2566 33.0968 48.0436 32.8785 46.8192C32.8179 46.3091 32.7209 45.8329 32.6239 45.3568L30.7448 47.5788C30.7205 47.6128 30.7205 47.6128 30.6842 47.6468C28.2474 50.0955 24.877 51.2178 21.5673 50.9344C19.7852 53.6325 17.712 58.9041 18.7183 61.9876C18.9244 61.965 19.1305 61.9423 19.3366 61.9196C19.3366 61.9083 19.3366 61.8969 19.3366 61.8856C25.4347 60.9107 30.8175 57.6797 34.2727 52.8616Z" fill="#231915"/>
<path fill-rule="evenodd" clip-rule="evenodd" d="M34.1584 21.9225L20.2121 38.2151C20.7868 38.991 21.4637 39.7315 22.281 40.3193C23.009 40.8483 23.8264 41.2597 24.6821 41.5771L38.6666 25.2492C37.8493 24.8965 37.0575 24.4498 36.3295 23.9209C35.5121 23.3331 34.7969 22.6278 34.1584 21.9225Z" fill="#FED001"/>
<path fill-rule="evenodd" clip-rule="evenodd" d="M27.2424 42.2743C29.1007 42.47 31.0102 42.1708 32.7532 41.4571L45.697 26.6999C44.1719 26.861 42.5828 26.8035 41.109 26.4581L27.2424 42.2743Z" fill="#231915"/>
<path fill-rule="evenodd" clip-rule="evenodd" d="M18.6822 30.9898C18.3046 32.5143 18.4053 34.0723 18.9213 35.5295L32.5152 20.1729C31.8984 19.052 31.5208 17.8639 31.3949 16.6309L18.6822 30.9898Z" fill="#0159BF"/>
<path fill-rule="evenodd" clip-rule="evenodd" d="M49.4931 21.427C50.1215 20.4901 50.7115 19.5198 51.2373 18.583C52.4941 16.4639 53.6354 14.3337 54.6999 12.1478C55.9054 9.66068 57.1109 6.87247 57.7008 4.19578C57.8932 3.40392 58.3805 0.827592 57.4443 0.191878C56.5466 -0.421531 53.7893 0.604545 52.9044 0.916826C50.0831 2.07673 47.2617 3.73851 44.7481 5.34452C42.5038 6.72748 40.3877 8.1885 38.323 9.74991C37.0534 10.7091 35.694 11.7797 34.5141 12.8616C33.6677 16.1182 35.0912 19.4864 38.0921 21.5497C41.1316 23.6353 45.1969 24.0145 48.6852 22.5646C48.9673 22.1854 49.2495 21.8062 49.5188 21.427C49.5188 21.4158 49.5059 21.427 49.4931 21.427Z" fill="#231915"/>
<path fill-rule="evenodd" clip-rule="evenodd" d="M17.3128 46.9567C17.4316 47.0268 17.5505 47.0968 17.6694 47.1552C17.709 47.1786 17.7354 47.1903 17.775 47.2136C21.5258 49.1872 26.3596 48.6267 29.4105 45.7656L30.7576 44.2474C28.9614 44.4343 27.2049 44.2825 25.4747 43.8621C25.2106 43.8504 24.9729 43.8154 24.7616 43.6635C23.4144 43.2665 22.1598 42.6242 20.9843 41.8184C18.541 40.1135 16.9033 37.7428 16.2826 35.162L16.2958 35.1387C16.2034 34.7767 16.1241 34.4146 16.0713 34.0176L14.7242 35.5357C12.0563 39.1325 12.928 43.9321 16.7316 46.583C16.8769 46.6881 17.0222 46.7815 17.1675 46.875C17.2335 46.91 17.2731 46.9333 17.3128 46.9567Z" fill="#231915"/>
<path fill-rule="evenodd" clip-rule="evenodd" d="M12.8876 34.0541C12.9132 34.0199 12.9132 34.0199 12.9517 33.9857L14.9394 31.7498C13.0158 31.9209 11.0794 32.0235 9.13019 32.0692C8.20688 32.0692 7.21945 32.0692 6.33461 32.035C1.74369 36.484 -0.487646 42.4047 0.0894252 48.371C3.71856 48.5763 9.00196 45.4392 11.5795 43.2032C10.4382 40.2372 10.7973 36.8605 12.8876 34.0541Z" fill="#231915"/>
</svg>
