<svg width="10" height="11" viewBox="0 0 10 11" fill="none" xmlns="http://www.w3.org/2000/svg">
<g clip-path="url(#clip0_705_1497)">
<path d="M-1 -3.5C-2.64497 -3.5 -4 -2.14497 -4 -0.5V11.5C-4 13.145 -2.64497 14.5 -1 14.5H11C12.645 14.5 14 13.145 14 11.5V-0.5C14 -2.14497 12.645 -3.5 11 -3.5H-1ZM-1 -1.5H11C11.565 -1.5 12 -1.06503 12 -0.5V11.5C12 12.065 11.565 12.5 11 12.5H-1C-1.56503 12.5 -2 12.065 -2 11.5V-0.5C-2 -1.06503 -1.56503 -1.5 -1 -1.5ZM5 0.5V7.5C5 8.06503 4.56503 8.5 4 8.5C3.43497 8.5 3 8.06503 3 7.5C3 6.93497 3.43497 6.5 4 6.5V4.5C2.35503 4.5 1 5.85503 1 7.5C1 9.14497 2.35503 10.5 4 10.5C5.64497 10.5 7 9.14497 7 7.5V3.73242C7.61615 4.17134 8.25912 4.5 9 4.5V2.5C8.95267 2.5 8.26267 2.28094 7.78125 1.86133C7.29983 1.44172 7 0.914991 7 0.5H5Z" fill="#F5EC09"/>
</g>
<defs>
<clipPath id="clip0_705_1497">
<rect width="10" height="11" fill="white"/>
</clipPath>
</defs>
</svg>
