<svg width="127" height="56" viewBox="0 0 127 56" fill="none" xmlns="http://www.w3.org/2000/svg">
<g clip-path="url(#clip0_130_653)">
<path fill-rule="evenodd" clip-rule="evenodd" d="M28.3789 47.6615C28.171 46.933 27.9631 46.2046 27.8592 45.4761C27.6513 44.3314 27.4433 43.2908 27.2354 42.1461C27.1315 41.7298 27.1315 41.2095 27.0275 40.7932L25.3643 42.8745C25.3643 42.8745 25.3643 42.8745 25.2604 42.9786C23.1813 45.268 20.2707 46.3086 17.4639 45.9964C15.9047 48.494 14.1375 53.2809 14.9691 56.1948C15.177 56.1948 15.281 56.1948 15.4889 56.0907C20.7904 55.05 25.3643 52.0322 28.3789 47.6615Z" fill="#FFFEFD"/>
<path fill-rule="evenodd" clip-rule="evenodd" d="M28.0671 19.9803L16.7363 34.4453C17.1521 35.1738 17.7758 35.7981 18.3995 36.3185C19.0232 36.7347 19.647 37.151 20.3746 37.4632L31.7054 22.9982C31.0817 22.686 30.354 22.2698 29.8343 21.8535C29.2106 21.2291 28.5868 20.6047 28.0671 19.9803Z" fill="#FED001"/>
<path fill-rule="evenodd" clip-rule="evenodd" d="M22.5576 37.9835C24.0129 38.1916 25.5722 37.8795 27.0276 37.2551L37.5267 23.9348C36.2793 24.0389 35.0319 24.0389 33.7844 23.7267L22.5576 37.9835Z" fill="#FFFEFD"/>
<path fill-rule="evenodd" clip-rule="evenodd" d="M15.4889 28.0974C15.177 29.5543 15.2809 31.0112 15.6968 32.364L26.9236 18.1072C26.4038 17.0665 26.092 15.9218 25.988 14.7771L15.4889 28.0974Z" fill="#1486F7"/>
<path fill-rule="evenodd" clip-rule="evenodd" d="M40.4374 19.9804C40.9571 19.1478 41.3729 18.2113 41.8927 17.2747C42.9322 15.2975 43.8678 13.3202 44.6994 11.2389C45.635 8.94952 46.6745 6.34791 47.0903 3.85036C47.1942 3.12191 47.6101 0.728424 46.8824 0.104037C46.1547 -0.416286 43.8678 0.520295 43.2441 0.832488C40.9571 1.87313 38.6702 3.4341 36.5911 4.99507C34.72 6.24384 33.0568 7.59668 31.3935 9.15765C30.354 10.0942 29.2105 11.0308 28.275 12.0715C27.5473 15.0893 28.6908 18.2113 31.1856 20.1885C33.6805 22.1657 36.903 22.4779 39.8136 21.1251C40.0216 20.7088 40.2295 20.3966 40.4374 19.9804Z" fill="#FFFEFD"/>
<path fill-rule="evenodd" clip-rule="evenodd" d="M14.2414 42.5623C14.3454 42.6664 14.4493 42.6664 14.5533 42.7705C14.5533 42.7705 14.6572 42.7705 14.6572 42.8745C17.5679 44.6436 21.4141 44.1233 23.805 41.6257L24.8445 40.2729C23.3892 40.481 22.0378 40.2729 20.6865 39.9607C20.4786 39.9607 20.2707 39.9607 20.1667 39.7526C19.1272 39.4404 18.0877 38.816 17.1521 38.0876C15.177 36.5266 13.9296 34.4453 13.4098 32.1559C13.3059 31.8437 13.3059 31.5315 13.2019 31.1152L12.1624 32.4681C10.0833 35.6941 10.7071 39.9607 13.7217 42.3542C13.8256 42.4583 13.9296 42.5623 14.0335 42.5623C14.1375 42.4583 14.1375 42.4583 14.2414 42.5623Z" fill="#FFFEFD"/>
<path fill-rule="evenodd" clip-rule="evenodd" d="M10.3953 31.1152C10.4993 31.1152 10.4993 31.1152 10.3953 31.1152L12.0585 29.0339C10.4993 29.2421 8.93998 29.2421 7.3807 29.3461C6.65304 29.3461 5.82142 29.3461 5.09376 29.3461C1.45543 33.3006 -0.415705 38.7119 0.104056 44.2273C3.01471 44.4355 7.27675 41.5217 9.45975 39.5444C8.42022 36.7347 8.73208 33.7168 10.3953 31.1152Z" fill="#FFFEFD"/>
</g>
<path d="M50.7607 31.8154V19.6458H61.0179V31.8154H58.2785V21.7933H53.5089V31.8154H50.7607Z" fill="#F0F0F3"/>
<path d="M67.8574 24.7047C68.6952 24.7047 69.3712 25.0106 69.8854 25.6224C70.404 26.2342 70.6633 27.1311 70.6633 28.3131C70.6633 29.1039 70.5414 29.7698 70.2976 30.3109C70.0538 30.8478 69.7169 31.2536 69.287 31.5283C68.857 31.8029 68.3627 31.9403 67.8042 31.9403C67.4452 31.9403 67.1371 31.8987 66.88 31.8154C66.6229 31.728 66.4035 31.6177 66.2218 31.4846C66.04 31.3472 65.8827 31.2015 65.7497 31.0475H65.6433C65.6788 31.214 65.7054 31.3847 65.7231 31.5595C65.7408 31.7343 65.7497 31.9049 65.7497 32.0714V34.887H63.7218V24.8358H65.3707L65.6566 25.741H65.7497C65.8827 25.5537 66.0445 25.381 66.2351 25.2228C66.4257 25.0647 66.654 24.9398 66.9199 24.8482C67.1903 24.7525 67.5028 24.7047 67.8574 24.7047ZM67.2058 26.2279C66.8512 26.2279 66.5697 26.2966 66.3614 26.434C66.1531 26.5713 66.0001 26.7773 65.9026 27.052C65.8095 27.3267 65.7586 27.6742 65.7497 28.0946V28.3006C65.7497 28.7501 65.794 29.1309 65.8827 29.4431C65.9758 29.7552 66.1287 29.9925 66.3415 30.1548C66.5587 30.3171 66.8556 30.3983 67.2324 30.3983C67.5427 30.3983 67.7976 30.3171 67.9971 30.1548C68.1965 29.9925 68.345 29.7552 68.4425 29.4431C68.5445 29.1268 68.5955 28.7418 68.5955 28.2881C68.5955 27.6056 68.4824 27.0916 68.2564 26.7461C68.0303 26.4007 67.6801 26.2279 67.2058 26.2279Z" fill="#F0F0F3"/>
<path d="M74.3003 24.8358V27.5952C74.3003 27.7367 74.2936 27.9156 74.2803 28.1321C74.2715 28.3443 74.2582 28.5607 74.2404 28.7813C74.2227 29.0019 74.205 29.1996 74.1872 29.3744C74.1695 29.5492 74.1562 29.6678 74.1473 29.7303L77.5782 24.8358H80.0184V31.8154H78.0569V29.0311C78.0569 28.8021 78.0658 28.5503 78.0835 28.2757C78.1013 27.9968 78.1212 27.7346 78.1434 27.489C78.1655 27.2435 78.1811 27.0583 78.1899 26.9334L74.7724 31.8154H72.3388V24.8358H74.3003Z" fill="#F0F0F3"/>
<path d="M88.7418 26.665C88.7418 27.0395 88.6155 27.36 88.3628 27.6264C88.1146 27.8886 87.7467 28.0571 87.2591 28.1321V28.182C87.7733 28.2403 88.1878 28.4088 88.5025 28.6877C88.8172 28.9624 88.9745 29.3099 88.9745 29.7303C88.9745 30.1298 88.8637 30.4878 88.6421 30.8041C88.4205 31.1162 88.0681 31.3639 87.5849 31.547C87.1018 31.7259 86.4701 31.8154 85.69 31.8154H82.1527V24.8358H85.69C86.2706 24.8358 86.7915 24.894 87.2525 25.0106C87.7135 25.1229 88.0769 25.3123 88.3429 25.5787C88.6089 25.845 88.7418 26.2071 88.7418 26.665ZM86.8735 29.6304C86.8735 29.3557 86.7582 29.158 86.5277 29.0373C86.3017 28.9124 85.9648 28.85 85.5171 28.85H84.1806V30.4982H85.557C85.9382 30.4982 86.2529 30.4316 86.5011 30.2984C86.7494 30.1652 86.8735 29.9425 86.8735 29.6304ZM86.6873 26.8148C86.6873 26.5984 86.5964 26.4381 86.4147 26.3341C86.233 26.23 85.9648 26.178 85.6102 26.178H84.1806V27.5577H85.3775C85.8074 27.5577 86.1332 27.4994 86.3549 27.3829C86.5765 27.2664 86.6873 27.077 86.6873 26.8148Z" fill="#F0F0F3"/>
<path d="M92.7445 24.8358V31.8154H90.7166V24.8358H92.7445ZM91.7339 22.1013C92.0353 22.1013 92.2946 22.1679 92.5118 22.3011C92.729 22.4301 92.8376 22.6736 92.8376 23.0315C92.8376 23.3853 92.729 23.6309 92.5118 23.7682C92.2946 23.9014 92.0353 23.968 91.7339 23.968C91.428 23.968 91.1665 23.9014 90.9493 23.7682C90.7365 23.6309 90.6301 23.3853 90.6301 23.0315C90.6301 22.6736 90.7365 22.4301 90.9493 22.3011C91.1665 22.1679 91.428 22.1013 91.7339 22.1013Z" fill="#F0F0F3"/>
<path d="M101.029 26.2654H98.5956V31.8154H96.5677V26.2654H94.1275V24.8358H101.029V26.2654Z" fill="#F0F0F3"/>
<path d="M48.3405 43.827C48.3405 44.7648 48.2164 45.6194 47.9681 46.3907C47.7199 47.1566 47.3417 47.8169 46.8334 48.3719C46.331 48.9268 45.6927 49.3541 44.9185 49.6538C44.1442 49.9479 43.2282 50.0949 42.1702 50.0949C41.1123 50.0949 40.1962 49.9479 39.422 49.6538C38.6478 49.3541 38.0065 48.9268 37.4982 48.3719C36.9959 47.8169 36.6206 47.1538 36.3723 46.3824C36.1241 45.6111 36 44.7537 36 43.8103C36 42.5506 36.2187 41.4546 36.656 40.5223C37.0993 39.5845 37.779 38.8575 38.695 38.3414C39.6111 37.8254 40.7754 37.5673 42.188 37.5673C43.5946 37.5673 44.75 37.8254 45.6543 38.3414C46.5645 38.8575 47.2382 39.5845 47.6756 40.5223C48.1189 41.4602 48.3405 42.5617 48.3405 43.827ZM38.8812 43.827C38.8812 44.676 38.9935 45.4085 39.2181 46.0245C39.4486 46.6349 39.8062 47.1066 40.2908 47.4396C40.7754 47.767 41.4019 47.9307 42.1702 47.9307C42.9504 47.9307 43.5828 47.767 44.0674 47.4396C44.5521 47.1066 44.9037 46.6349 45.1224 46.0245C45.347 45.4085 45.4593 44.676 45.4593 43.827C45.4593 42.5506 45.2051 41.5462 44.6969 40.8137C44.1886 40.0812 43.3523 39.7149 42.188 39.7149C41.4137 39.7149 40.7813 39.8814 40.2908 40.2143C39.8062 40.5418 39.4486 41.0134 39.2181 41.6294C38.9935 42.2398 38.8812 42.9724 38.8812 43.827Z" fill="#F0F0F3"/>
<path d="M55.333 42.9488H57.567L54.6215 46.295L57.8263 49.9284H55.5258L52.4872 46.3887V49.9284H50.4593V42.9488H52.4872V46.3387L55.333 42.9488Z" fill="#F0F0F3"/>
<path d="M57.8263 42.9488H60.0471L61.45 46.8756C61.4944 47.0005 61.532 47.1274 61.5631 47.2564C61.5941 47.3855 61.6207 47.5187 61.6429 47.656C61.665 47.7933 61.6827 47.9369 61.696 48.0868H61.7359C61.7625 47.862 61.798 47.6518 61.8423 47.4562C61.8911 47.2606 61.9509 47.0671 62.0218 46.8756L63.3982 42.9488H65.5724L62.4274 50.8212C62.2368 51.304 61.9886 51.7056 61.6827 52.0261C61.3769 52.3507 61.0245 52.5942 60.6256 52.7565C60.2311 52.9188 59.7967 53 59.3224 53C59.0919 53 58.8924 52.9875 58.724 52.9625C58.5555 52.9417 58.4115 52.9188 58.2918 52.8939V51.3831C58.3849 51.4039 58.5023 51.4226 58.6442 51.4393C58.786 51.4559 58.9345 51.4642 59.0897 51.4642C59.3733 51.4642 59.6171 51.408 59.821 51.2957C60.0249 51.1833 60.1956 51.0314 60.333 50.8399C60.4704 50.6526 60.579 50.4466 60.6588 50.2219L60.7785 49.8785L57.8263 42.9488Z" fill="#F0F0F3"/>
<path d="M73.3982 42.9488V49.9284H71.3636V44.3784H68.6708V49.9284H66.6429V42.9488H73.3982Z" fill="#F0F0F3"/>
<path d="M78.5711 42.8052C79.5685 42.8052 80.3331 43.0091 80.865 43.417C81.3969 43.8249 81.6629 44.445 81.6629 45.2774V49.9284H80.2467L79.8544 48.9795H79.8012C79.5884 49.2292 79.3712 49.4332 79.1496 49.5913C78.928 49.7495 78.6731 49.866 78.385 49.9409C78.0968 50.0158 77.7467 50.0533 77.3344 50.0533C76.8956 50.0533 76.5011 49.9742 76.1509 49.8161C75.8052 49.6579 75.5326 49.4165 75.3331 49.0919C75.1336 48.7631 75.0339 48.3469 75.0339 47.8433C75.0339 47.1024 75.3109 46.5572 75.865 46.2076C76.4191 45.8538 77.2502 45.6582 78.3584 45.6208L79.6483 45.5833V45.2774C79.6483 44.9112 79.5463 44.6427 79.3424 44.4721C79.1385 44.3014 78.8548 44.2161 78.4913 44.2161C78.1323 44.2161 77.7799 44.264 77.4342 44.3597C77.0884 44.4554 76.7427 44.5761 76.3969 44.7218L75.7254 43.4357C76.1199 43.2401 76.5609 43.0861 77.0485 42.9737C77.5405 42.8614 78.0481 42.8052 78.5711 42.8052ZM79.6483 46.6946L78.8637 46.7195C78.2077 46.7362 77.7511 46.8465 77.494 47.0504C77.2413 47.2544 77.115 47.5228 77.115 47.8558C77.115 48.1471 77.2059 48.3552 77.3876 48.4801C77.5694 48.6008 77.8065 48.6611 78.0991 48.6611C78.5335 48.6611 78.8991 48.5404 79.1961 48.299C79.4976 48.0576 79.6483 47.7143 79.6483 47.2689V46.6946Z" fill="#F0F0F3"/>
<path d="M85.7853 42.9488V45.6333H88.6177V42.9488H90.6457V49.9284H88.6177V47.0504H85.7853V49.9284H83.7573V42.9488H85.7853Z" fill="#F0F0F3"/>
<path d="M98.9236 44.3784H96.4901V49.9284H94.4622V44.3784H92.022V42.9488H98.9236V44.3784Z" fill="#F0F0F3"/>
<path d="M103.358 42.8052C104.356 42.8052 105.12 43.0091 105.652 43.417C106.184 43.8249 106.45 44.445 106.45 45.2774V49.9284H105.034L104.642 48.9795H104.589C104.376 49.2292 104.159 49.4332 103.937 49.5913C103.715 49.7495 103.46 49.866 103.172 49.9409C102.884 50.0158 102.534 50.0533 102.122 50.0533C101.683 50.0533 101.288 49.9742 100.938 49.8161C100.593 49.6579 100.32 49.4165 100.12 49.0919C99.921 48.7631 99.8212 48.3469 99.8212 47.8433C99.8212 47.1024 100.098 46.5572 100.652 46.2076C101.206 45.8538 102.038 45.6582 103.146 45.6208L104.436 45.5833V45.2774C104.436 44.9112 104.334 44.6427 104.13 44.4721C103.926 44.3014 103.642 44.2161 103.279 44.2161C102.92 44.2161 102.567 44.264 102.222 44.3597C101.876 44.4554 101.53 44.5761 101.184 44.7218L100.513 43.4357C100.907 43.2401 101.348 43.0861 101.836 42.9737C102.328 42.8614 102.835 42.8052 103.358 42.8052ZM104.436 46.6946L103.651 46.7195C102.995 46.7362 102.538 46.8465 102.281 47.0504C102.029 47.2544 101.902 47.5228 101.902 47.8558C101.902 48.1471 101.993 48.3552 102.175 48.4801C102.357 48.6008 102.594 48.6611 102.886 48.6611C103.321 48.6611 103.687 48.5404 103.983 48.299C104.285 48.0576 104.436 47.7143 104.436 47.2689V46.6946Z" fill="#F0F0F3"/>
<path d="M117.913 42.9488V49.9284H116.018V46.501C116.018 46.1639 116.025 45.833 116.038 45.5084C116.051 45.1838 116.071 44.8841 116.098 44.6094H116.058L114.003 49.9284H112.481L110.393 44.5969H110.34C110.375 44.8758 110.4 45.1754 110.413 45.4959C110.426 45.8164 110.433 46.1681 110.433 46.551V49.9284H108.545V42.9488H111.417L113.265 47.681L115.147 42.9488H117.913Z" fill="#F0F0F3"/>
<path d="M64.3778 13.1697V1H74.6349V13.1697H71.8956V3.14759H67.126V13.1697H64.3778Z" fill="#F0F0F3"/>
<path d="M80.404 6.05891C81.0911 6.05891 81.6828 6.18377 82.1793 6.43349C82.6758 6.67905 83.0592 7.03698 83.3296 7.50728C83.6 7.97759 83.7352 8.55194 83.7352 9.23035V10.1543H78.9413C78.9634 10.6912 79.1341 11.1137 79.4532 11.4216C79.7768 11.7255 80.2245 11.8774 80.7963 11.8774C81.2706 11.8774 81.705 11.8316 82.0995 11.74C82.494 11.6485 82.8996 11.5111 83.3163 11.328V12.8013C82.9484 12.972 82.5627 13.0968 82.1594 13.1759C81.7604 13.255 81.275 13.2945 80.7032 13.2945C79.9585 13.2945 79.2981 13.1655 78.7218 12.9075C78.15 12.6494 77.7001 12.2561 77.3721 11.7275C77.0485 11.199 76.8867 10.5331 76.8867 9.72979C76.8867 8.91404 77.033 8.23563 77.3256 7.69457C77.6225 7.14935 78.0348 6.74148 78.5623 6.47095C79.0897 6.19625 79.7037 6.05891 80.404 6.05891ZM80.4173 7.41364C80.0228 7.41364 79.6948 7.53226 79.4333 7.76949C79.1762 8.00672 79.0277 8.37922 78.9878 8.88699H81.8336C81.8291 8.60397 81.7737 8.35217 81.6673 8.13158C81.5654 7.911 81.4102 7.73619 81.2019 7.60717C80.998 7.47815 80.7365 7.41364 80.4173 7.41364Z" fill="#F0F0F3"/>
<path d="M89.5198 6.05891C90.3575 6.05891 91.0335 6.36482 91.5477 6.97663C92.0663 7.58844 92.3256 8.48535 92.3256 9.66736C92.3256 10.4581 92.2037 11.1241 91.9599 11.6651C91.7161 12.202 91.3793 12.6078 90.9493 12.8825C90.5193 13.1572 90.0251 13.2945 89.4666 13.2945C89.1075 13.2945 88.7995 13.2529 88.5424 13.1697C88.2853 13.0823 88.0659 12.972 87.8841 12.8388C87.7024 12.7015 87.545 12.5558 87.412 12.4018H87.3057C87.3411 12.5683 87.3677 12.7389 87.3854 12.9137C87.4032 13.0885 87.412 13.2592 87.412 13.4256V16.2412H85.3841V6.19001H87.0331L87.319 7.09525H87.412C87.545 6.90796 87.7068 6.73523 87.8974 6.57708C88.088 6.41892 88.3163 6.29406 88.5823 6.2025C88.8526 6.10677 89.1652 6.05891 89.5198 6.05891ZM88.8682 7.5822C88.5136 7.5822 88.2321 7.65087 88.0237 7.78822C87.8154 7.92556 87.6625 8.13158 87.565 8.40627C87.4719 8.68097 87.4209 9.02849 87.412 9.44886V9.65487C87.412 10.1044 87.4564 10.4852 87.545 10.7973C87.6381 11.1095 87.791 11.3467 88.0038 11.509C88.221 11.6714 88.518 11.7525 88.8948 11.7525C89.205 11.7525 89.4599 11.6714 89.6594 11.509C89.8589 11.3467 90.0074 11.1095 90.1049 10.7973C90.2068 10.481 90.2578 10.096 90.2578 9.64239C90.2578 8.95982 90.1448 8.44581 89.9187 8.10037C89.6926 7.75492 89.3425 7.5822 88.8682 7.5822Z" fill="#F0F0F3"/>
<path d="M97.0663 6.05891C97.7534 6.05891 98.3452 6.18377 98.8416 6.43349C99.3381 6.67905 99.7215 7.03698 99.9919 7.50728C100.262 7.97759 100.397 8.55194 100.397 9.23035V10.1543H95.6036C95.6257 10.6912 95.7964 11.1137 96.1155 11.4216C96.4391 11.7255 96.8868 11.8774 97.4586 11.8774C97.9329 11.8774 98.3673 11.8316 98.7618 11.74C99.1563 11.6485 99.5619 11.5111 99.9786 11.328V12.8013C99.6107 12.972 99.225 13.0968 98.8217 13.1759C98.4227 13.255 97.9374 13.2945 97.3655 13.2945C96.6209 13.2945 95.9604 13.1655 95.3842 12.9075C94.8123 12.6494 94.3624 12.2561 94.0344 11.7275C93.7108 11.199 93.549 10.5331 93.549 9.72979C93.549 8.91404 93.6953 8.23563 93.9879 7.69457C94.2849 7.14935 94.6971 6.74148 95.2246 6.47095C95.7521 6.19625 96.366 6.05891 97.0663 6.05891ZM97.0796 7.41364C96.6851 7.41364 96.3571 7.53226 96.0956 7.76949C95.8385 8.00672 95.69 8.37922 95.6501 8.88699H98.4959C98.4914 8.60397 98.436 8.35217 98.3296 8.13158C98.2277 7.911 98.0726 7.73619 97.8642 7.60717C97.6603 7.47815 97.3988 7.41364 97.0796 7.41364Z" fill="#F0F0F3"/>
<path d="M108.729 6.19001V11.7775H109.819V15.6731H107.997V13.1697H102.997V15.6731H101.175V11.7775H101.8C102.128 11.3072 102.403 10.7703 102.625 10.1668C102.851 9.56331 103.033 8.92444 103.17 8.2502C103.312 7.57179 103.414 6.88506 103.476 6.19001H108.729ZM106.701 7.61966H105.178C105.107 8.13575 105.016 8.63518 104.905 9.11798C104.799 9.59661 104.666 10.0586 104.507 10.5039C104.347 10.9451 104.152 11.3696 103.921 11.7775H106.701V7.61966Z" fill="#F0F0F3"/>
<path d="M114.134 6.04642C115.132 6.04642 115.896 6.25036 116.428 6.65824C116.96 7.06611 117.226 7.68625 117.226 8.51865V13.1697H115.81L115.417 12.2207H115.364C115.152 12.4705 114.934 12.6744 114.713 12.8326C114.491 12.9907 114.236 13.1073 113.948 13.1822C113.66 13.2571 113.31 13.2945 112.898 13.2945C112.459 13.2945 112.064 13.2155 111.714 13.0573C111.368 12.8992 111.096 12.6578 110.896 12.3331C110.697 12.0043 110.597 11.5881 110.597 11.0845C110.597 10.3437 110.874 9.79846 111.428 9.44886C111.982 9.09509 112.813 8.89947 113.921 8.86201L115.211 8.82456V8.51865C115.211 8.15239 115.109 7.88394 114.906 7.7133C114.702 7.54266 114.418 7.45734 114.054 7.45734C113.695 7.45734 113.343 7.5052 112.997 7.60093C112.652 7.69665 112.306 7.81735 111.96 7.96302L111.288 6.67696C111.683 6.48135 112.124 6.32736 112.612 6.21498C113.104 6.10261 113.611 6.04642 114.134 6.04642ZM115.211 9.93581L114.427 9.96078C113.771 9.97743 113.314 10.0877 113.057 10.2917C112.804 10.4956 112.678 10.764 112.678 11.097C112.678 11.3883 112.769 11.5964 112.951 11.7213C113.132 11.842 113.37 11.9024 113.662 11.9024C114.097 11.9024 114.462 11.7817 114.759 11.5403C115.061 11.2989 115.211 10.9555 115.211 10.5102V9.93581Z" fill="#F0F0F3"/>
<path d="M121.282 6.19001V8.94942C121.282 9.09092 121.275 9.26989 121.262 9.48631C121.253 9.69858 121.24 9.915 121.222 10.1356C121.204 10.3562 121.187 10.5539 121.169 10.7287C121.151 10.9035 121.138 11.0221 121.129 11.0845L124.56 6.19001H127V13.1697H125.039V10.3853C125.039 10.1564 125.047 9.90459 125.065 9.6299C125.083 9.35105 125.103 9.08884 125.125 8.84328C125.147 8.59773 125.163 8.41252 125.172 8.28766L121.754 13.1697H119.32V6.19001H121.282ZM126.441 3.18713C126.393 3.6283 126.26 4.01745 126.043 4.35457C125.825 4.69169 125.486 4.9539 125.025 5.14119C124.564 5.32848 123.944 5.42212 123.164 5.42212C122.361 5.42212 121.736 5.33264 121.289 5.15367C120.841 4.97055 120.522 4.7125 120.331 4.37954C120.14 4.04242 120.025 3.64495 119.985 3.18713H121.801C121.84 3.65744 121.967 3.96959 122.179 4.12358C122.392 4.27341 122.734 4.34833 123.203 4.34833C123.594 4.34833 123.913 4.26509 124.161 4.09861C124.409 3.93213 124.558 3.6283 124.606 3.18713H126.441Z" fill="#F0F0F3"/>
<defs>
<clipPath id="clip0_130_653">
<rect width="113.204" height="55.9867" fill="white"/>
</clipPath>
</defs>
</svg>
